<svg version="1.2" baseProfile="tiny-ps" xmlns="http://www.w3.org/2000/svg" viewBox="0 0 1440 325" width="1440" height="325">
	<title>product-banner-svg</title>
	<defs>
		<clipPath clipPathUnits="userSpaceOnUse" id="cp1">
			<path d="M0 325L0 0L1440 0L1440 325L0 325Z" />
		</clipPath>
	</defs>
	<style>
		tspan { white-space:pre }
		.shp0 { fill: #bb90f3 } 
		.shp1 { fill: #8557c3 } 
		.shp2 { fill: #c29af8 } 
		.shp3 { fill: #7837ce } 
	</style>
	<g id="Layer">
		<g id="Layer">
			<g id="Layer">
				<path id="w45va" class="shp0" d="M-66.83 339.08L-66.83 -16.08L1506.83 -16.08L1506.83 339.08L-66.83 339.08Z" />
			</g>
			<g id="Clip-Path" clip-path="url(#cp1)">
				<g id="Layer">
					<g id="Layer">
						<path id="w45vd" class="shp1" d="M964.32 129.06C1064.54 82.62 1144.76 186.91 1181.4 108.27C1218.05 29.64 1393.36 115.21 1335.06 277.47C1276.76 439.71 1155.93 191.48 1140.91 341.24C1125.89 491.01 980.08 396.27 931.17 333.66C882.26 271.06 864.11 175.5 964.32 129.06L964.32 129.06Z" />
					</g>
					<g id="Layer">
						<path id="w45ve" class="shp1" d="M765 -80C759.92 -56.2 749.28 -31.36 733.64 -12.67C718.48 5.44 696.14 20.89 673.12 25.71C646.51 31.27 619.12 27.51 593 21.51C562.55 14.51 520.56 17.95 490.51 37.21C461.69 55.68 442.68 80.75 420.43 106.24C388.03 143.33 346.74 175.24 294.93 171.44C253.85 168.44 219.05 143.43 195.43 110.77C180.49 90.11 169.61 66.69 161.53 42.57C130.89 -48.87 145.47 -79.16 145.47 -79.16L765 -80Z" />
					</g>
					<g id="Layer">
						<path id="w45vf" class="shp2" d="M1339.33 162.63C1343.35 160.18 1348.54 159 1354.61 159C1390.37 159.01 1456.92 199.85 1496.85 262.91C1512.62 287.81 1524.24 316.17 1528.18 346.84C1528.29 347.84 1528.4 348.84 1528.5 349.84C1528.59 350.85 1528.68 351.85 1528.76 352.85C1528.84 353.86 1528.91 354.86 1528.97 355.86C1529.03 356.87 1529.08 357.87 1529.12 358.88C1529.4 364.93 1529.54 372.93 1529.14 382.15C1527.45 420.43 1516.32 479.77 1466.82 508.63C1416.96 537.69 1338.23 529.97 1314.93 489.09C1306.17 473.72 1303.45 450.52 1310.43 430.9C1321.61 399.48 1351.88 393.51 1349.76 375.78C1347.91 360.26 1322.75 348.54 1302.83 345.7C1269.54 340.96 1258.9 362.11 1225.14 364.69C1211.01 365.77 1196.53 363.59 1183.12 359.12C1175.73 356.66 1168.62 353.42 1162.22 349.42C1150.66 342.18 1141.48 332.42 1137.36 320.15C1135.73 315.31 1135.01 310.42 1135 305.61L1135 305.36C1135.03 293.24 1139.48 281.5 1144.96 271.54C1145.72 270.17 1146.5 268.82 1147.31 267.47C1148.12 266.13 1148.95 264.81 1149.8 263.49C1150.66 262.18 1151.53 260.88 1152.43 259.6C1153.33 258.32 1154.25 257.05 1155.19 255.8C1157.91 252.16 1160.38 249.17 1162.18 246.98C1166.14 242.16 1186.31 217.66 1213.03 208.66C1214.56 208.13 1216.12 207.66 1217.69 207.26C1219.26 206.86 1220.85 206.52 1222.45 206.24C1224.05 205.96 1225.66 205.75 1227.28 205.61C1228.89 205.46 1230.52 205.38 1232.14 205.36C1234.31 205.35 1236.5 205.47 1238.72 205.73C1249.77 207.06 1258.84 211.69 1266.59 217.53C1286.32 232.39 1297.44 255.11 1310.66 251.23C1332.71 244.79 1314.13 178 1339.33 162.63" />
					</g>
					<g id="Layer">
						<path id="w45vh" class="shp3" d="M1044.97 239.26C1055.63 225.24 1080.98 220.33 1096.01 234.5C1108.15 245.94 1108.4 264.98 1101.18 278.1C1093.28 292.45 1075.11 302.1 1059.81 296.27C1043.6 290.09 1040.16 270.13 1039.57 266.06C1039.03 262.17 1037.22 249.46 1044.97 239.26" />
					</g>
					<g id="Layer">
						<path id="w45vi" class="shp3" d="M1255.17 -151.36C1357.47 -109.74 1335.92 20.05 1418.42 -6.78C1500.92 -33.61 1557.9 152.97 1399.48 220.98C1241.05 288.99 1340.2 31.34 1220.42 122.5C1100.65 213.65 1070.49 42.4 1082.92 -36.07C1095.35 -114.54 1152.86 -192.98 1255.17 -151.37L1255.17 -151.36Z" />
					</g>
					<g id="Layer">
						<path id="w45vj" class="shp2" d="M16.76 -108.01C33.61 -109.95 75.95 -105.81 110.79 -85.25C145.63 -64.69 162.78 -20.09 161.24 11.61C159.69 43.31 170.12 68.06 191.56 78.98C213.01 89.91 226.49 82.35 248.75 79.6C271 76.84 325.89 92.05 333.99 140.6C342.09 189.16 300.09 235.11 271.9 249.5C243.7 263.88 228.12 283.9 246.77 305.2C256.42 316.22 290.55 343.72 273.19 370.15C190.04 496.79 -59.88 360.71 -103.34 193.25C-142.6 41.96 -74.59 -97.29 16.76 -108" />
						<path id="w45vj copy" class="shp2" d="M16.76 -108.01C33.61 -109.95 75.95 -105.81 110.79 -85.25C145.63 -64.69 162.78 -20.09 161.24 11.61C159.69 43.31 170.12 68.06 191.56 78.98C213.01 89.91 226.49 82.35 248.75 79.6C271 76.84 325.89 92.05 333.99 140.6C342.09 189.16 300.09 235.11 271.9 249.5C243.7 263.88 228.12 283.9 246.77 305.2C256.42 316.22 290.55 343.72 273.19 370.15C190.04 496.79 -59.88 360.71 -103.34 193.25C-142.6 41.96 -74.59 -97.29 16.76 -108" />
					</g>
				</g>
			</g>
		</g>
	</g>
</svg>